<svg id="visual" viewBox="0 0 250 1200" width="250" height="1200" xmlns="http://www.w3.org/2000/svg" xmlns:xlink="http://www.w3.org/1999/xlink" version="1.1"><path d="M162 1200L65 1200L65 1125L160 1125L160 1050L139 1050L139 975L146 975L146 900L84 900L84 825L80 825L80 750L92 750L92 675L87 675L87 600L77 600L77 525L121 525L121 450L139 450L139 375L55 375L55 300L147 300L147 225L80 225L80 150L98 150L98 75L66 75L66 0L250 0L250 75L250 75L250 150L250 150L250 225L250 225L250 300L250 300L250 375L250 375L250 450L250 450L250 525L250 525L250 600L250 600L250 675L250 675L250 750L250 750L250 825L250 825L250 900L250 900L250 975L250 975L250 1050L250 1050L250 1125L250 1125L250 1200L250 1200Z" fill="#12609f"></path><path d="M175 1200L146 1200L146 1125L96 1125L96 1050L162 1050L162 975L118 975L118 900L89 900L89 825L101 825L101 750L75 750L75 675L137 675L137 600L129 600L129 525L68 525L68 450L90 450L90 375L88 375L88 300L144 300L144 225L161 225L161 150L89 150L89 75L119 75L119 0L250 0L250 75L250 75L250 150L250 150L250 225L250 225L250 300L250 300L250 375L250 375L250 450L250 450L250 525L250 525L250 600L250 600L250 675L250 675L250 750L250 750L250 825L250 825L250 900L250 900L250 975L250 975L250 1050L250 1050L250 1125L250 1125L250 1200L250 1200Z" fill="#3d77b5"></path><path d="M176 1200L123 1200L123 1125L124 1125L124 1050L171 1050L171 975L105 975L105 900L151 900L151 825L147 825L147 750L118 750L118 675L166 675L166 600L109 600L109 525L157 525L157 450L136 450L136 375L119 375L119 300L114 300L114 225L174 225L174 150L122 150L122 75L144 75L144 0L250 0L250 75L250 75L250 150L250 150L250 225L250 225L250 300L250 300L250 375L250 375L250 450L250 450L250 525L250 525L250 600L250 600L250 675L250 675L250 750L250 750L250 825L250 825L250 900L250 900L250 975L250 975L250 1050L250 1050L250 1125L250 1125L250 1200L250 1200Z" fill="#5c90cb"></path><path d="M131 1200L180 1200L180 1125L166 1125L166 1050L182 1050L182 975L190 975L190 900L156 900L156 825L193 825L193 750L165 750L165 675L178 675L178 600L178 600L178 525L163 525L163 450L124 450L124 375L164 375L164 300L145 300L145 225L193 225L193 150L144 150L144 75L115 75L115 0L250 0L250 75L250 75L250 150L250 150L250 225L250 225L250 300L250 300L250 375L250 375L250 450L250 450L250 525L250 525L250 600L250 600L250 675L250 675L250 750L250 750L250 825L250 825L250 900L250 900L250 975L250 975L250 1050L250 1050L250 1125L250 1125L250 1200L250 1200Z" fill="#74a4dd"></path><path d="M149 1200L205 1200L205 1125L179 1125L179 1050L174 1050L174 975L161 975L161 900L183 900L183 825L208 825L208 750L154 750L154 675L207 675L207 600L178 600L178 525L152 525L152 450L173 450L173 375L197 375L197 300L201 300L201 225L205 225L205 150L165 150L165 75L168 75L168 0L250 0L250 75L250 75L250 150L250 150L250 225L250 225L250 300L250 300L250 375L250 375L250 450L250 450L250 525L250 525L250 600L250 600L250 675L250 675L250 750L250 750L250 825L250 825L250 900L250 900L250 975L250 975L250 1050L250 1050L250 1125L250 1125L250 1200L250 1200Z" fill="#74a4dd"></path><path d="M190 1200L174 1200L174 1125L189 1125L189 1050L163 1050L163 975L210 975L210 900L196 900L196 825L210 825L210 750L160 750L160 675L168 675L168 600L191 600L191 525L223 525L223 450L198 450L198 375L220 375L220 300L169 300L169 225L195 225L195 150L195 150L195 75L197 75L197 0L250 0L250 75L250 75L250 150L250 150L250 225L250 225L250 300L250 300L250 375L250 375L250 450L250 450L250 525L250 525L250 600L250 600L250 675L250 675L250 750L250 750L250 825L250 825L250 900L250 900L250 975L250 975L250 1050L250 1050L250 1125L250 1125L250 1200L250 1200Z" fill="#5c90cb"></path><path d="M198 1200L187 1200L187 1125L217 1125L217 1050L232 1050L232 975L192 975L192 900L185 900L185 825L216 825L216 750L222 750L222 675L234 675L234 600L210 600L210 525L215 525L215 450L215 450L215 375L206 375L206 300L219 300L219 225L196 225L196 150L232 150L232 75L188 75L188 0L250 0L250 75L250 75L250 150L250 150L250 225L250 225L250 300L250 300L250 375L250 375L250 450L250 450L250 525L250 525L250 600L250 600L250 675L250 675L250 750L250 750L250 825L250 825L250 900L250 900L250 975L250 975L250 1050L250 1050L250 1125L250 1125L250 1200L250 1200Z" fill="#3d77b5"></path><path d="M229 1200L212 1200L212 1125L222 1125L222 1050L227 1050L227 975L207 975L207 900L238 900L238 825L243 825L243 750L223 750L223 675L227 675L227 600L218 600L218 525L215 525L215 450L234 450L234 375L215 375L215 300L246 300L246 225L244 225L244 150L223 150L223 75L228 75L228 0L250 0L250 75L250 75L250 150L250 150L250 225L250 225L250 300L250 300L250 375L250 375L250 450L250 450L250 525L250 525L250 600L250 600L250 675L250 675L250 750L250 750L250 825L250 825L250 900L250 900L250 975L250 975L250 1050L250 1050L250 1125L250 1125L250 1200L250 1200Z" fill="#12609f"></path></svg>