<svg id="visual" viewBox="0 0 250 1200" width="250" height="1200" xmlns="http://www.w3.org/2000/svg" xmlns:xlink="http://www.w3.org/1999/xlink" version="1.1"><path d="M90 0L187 0L187 75L92 75L92 150L113 150L113 225L106 225L106 300L168 300L168 375L172 375L172 450L160 450L160 525L165 525L165 600L175 600L175 675L131 675L131 750L113 750L113 825L197 825L197 900L105 900L105 975L172 975L172 1050L154 1050L154 1125L186 1125L186 1200L0 1200L0 1125L0 1125L0 1050L0 1050L0 975L0 975L0 900L0 900L0 825L0 825L0 750L0 750L0 675L0 675L0 600L0 600L0 525L0 525L0 450L0 450L0 375L0 375L0 300L0 300L0 225L0 225L0 150L0 150L0 75L0 75L0 0L0 0Z" fill="#12609f"></path><path d="M77 0L106 0L106 75L156 75L156 150L90 150L90 225L134 225L134 300L163 300L163 375L151 375L151 450L177 450L177 525L115 525L115 600L123 600L123 675L184 675L184 750L162 750L162 825L164 825L164 900L108 900L108 975L91 975L91 1050L163 1050L163 1125L133 1125L133 1200L0 1200L0 1125L0 1125L0 1050L0 1050L0 975L0 975L0 900L0 900L0 825L0 825L0 750L0 750L0 675L0 675L0 600L0 600L0 525L0 525L0 450L0 450L0 375L0 375L0 300L0 300L0 225L0 225L0 150L0 150L0 75L0 75L0 0L0 0Z" fill="#3d77b5"></path><path d="M76 0L129 0L129 75L128 75L128 150L81 150L81 225L147 225L147 300L101 300L101 375L105 375L105 450L134 450L134 525L86 525L86 600L143 600L143 675L95 675L95 750L116 750L116 825L133 825L133 900L138 900L138 975L78 975L78 1050L130 1050L130 1125L108 1125L108 1200L0 1200L0 1125L0 1125L0 1050L0 1050L0 975L0 975L0 900L0 900L0 825L0 825L0 750L0 750L0 675L0 675L0 600L0 600L0 525L0 525L0 450L0 450L0 375L0 375L0 300L0 300L0 225L0 225L0 150L0 150L0 75L0 75L0 0L0 0Z" fill="#5c90cb"></path><path d="M121 0L72 0L72 75L86 75L86 150L70 150L70 225L62 225L62 300L96 300L96 375L59 375L59 450L87 450L87 525L74 525L74 600L74 600L74 675L89 675L89 750L128 750L128 825L88 825L88 900L107 900L107 975L59 975L59 1050L108 1050L108 1125L137 1125L137 1200L0 1200L0 1125L0 1125L0 1050L0 1050L0 975L0 975L0 900L0 900L0 825L0 825L0 750L0 750L0 675L0 675L0 600L0 600L0 525L0 525L0 450L0 450L0 375L0 375L0 300L0 300L0 225L0 225L0 150L0 150L0 75L0 75L0 0L0 0Z" fill="#74a4dd"></path><path d="M103 0L47 0L47 75L73 75L73 150L78 150L78 225L91 225L91 300L69 300L69 375L44 375L44 450L98 450L98 525L45 525L45 600L74 600L74 675L100 675L100 750L79 750L79 825L55 825L55 900L51 900L51 975L47 975L47 1050L87 1050L87 1125L84 1125L84 1200L0 1200L0 1125L0 1125L0 1050L0 1050L0 975L0 975L0 900L0 900L0 825L0 825L0 750L0 750L0 675L0 675L0 600L0 600L0 525L0 525L0 450L0 450L0 375L0 375L0 300L0 300L0 225L0 225L0 150L0 150L0 75L0 75L0 0L0 0Z" fill="#74a4dd"></path><path d="M62 0L78 0L78 75L63 75L63 150L89 150L89 225L42 225L42 300L56 300L56 375L42 375L42 450L92 450L92 525L84 525L84 600L61 600L61 675L29 675L29 750L54 750L54 825L32 825L32 900L83 900L83 975L57 975L57 1050L57 1050L57 1125L55 1125L55 1200L0 1200L0 1125L0 1125L0 1050L0 1050L0 975L0 975L0 900L0 900L0 825L0 825L0 750L0 750L0 675L0 675L0 600L0 600L0 525L0 525L0 450L0 450L0 375L0 375L0 300L0 300L0 225L0 225L0 150L0 150L0 75L0 75L0 0L0 0Z" fill="#5c90cb"></path><path d="M54 0L65 0L65 75L35 75L35 150L20 150L20 225L60 225L60 300L67 300L67 375L36 375L36 450L30 450L30 525L18 525L18 600L42 600L42 675L37 675L37 750L37 750L37 825L46 825L46 900L33 900L33 975L56 975L56 1050L20 1050L20 1125L64 1125L64 1200L0 1200L0 1125L0 1125L0 1050L0 1050L0 975L0 975L0 900L0 900L0 825L0 825L0 750L0 750L0 675L0 675L0 600L0 600L0 525L0 525L0 450L0 450L0 375L0 375L0 300L0 300L0 225L0 225L0 150L0 150L0 75L0 75L0 0L0 0Z" fill="#3d77b5"></path><path d="M23 0L40 0L40 75L30 75L30 150L25 150L25 225L45 225L45 300L14 300L14 375L9 375L9 450L29 450L29 525L25 525L25 600L34 600L34 675L37 675L37 750L18 750L18 825L37 825L37 900L6 900L6 975L8 975L8 1050L29 1050L29 1125L24 1125L24 1200L0 1200L0 1125L0 1125L0 1050L0 1050L0 975L0 975L0 900L0 900L0 825L0 825L0 750L0 750L0 675L0 675L0 600L0 600L0 525L0 525L0 450L0 450L0 375L0 375L0 300L0 300L0 225L0 225L0 150L0 150L0 75L0 75L0 0L0 0Z" fill="#12609f"></path></svg>